M48
; DRILL file {KiCad (5.1.5)-3} date 5/11/2020 1:58:36 PM
; FORMAT={-:-/ absolute / inch / decimal}
; #@! TF.CreationDate,2020-05-11T13:58:36+02:00
; #@! TF.GenerationSoftware,Kicad,Pcbnew,(5.1.5)-3
; #@! TF.FileFunction,Plated,1,2,PTH
FMAT,2
INCH
T1C0.0157
T2C0.0315
T3C0.0354
T4C0.0394
T5C0.0433
T6C0.0472
T7C0.0512
%
G90
G05
T1
X4.1Y-3.1
X4.15Y-3.0
X4.25Y-3.75
X4.35Y-3.45
X4.45Y-3.75
T2
X4.9Y-4.5016
X4.9Y-4.6
X4.4516Y-1.65
X4.55Y-1.65
X5.2Y-3.7016
X5.2Y-3.8
X4.0Y-4.5016
X4.0Y-4.6
T3
X4.5Y-1.85
X4.5Y-1.95
X4.0Y-4.25
X4.0Y-4.35
T4
X4.003Y-3.0841
X4.003Y-3.1841
X4.003Y-3.2841
X4.003Y-3.3841
X4.003Y-3.4841
X4.003Y-3.5841
X4.003Y-3.6841
X4.003Y-3.7841
X4.903Y-3.0841
X4.903Y-3.1841
X4.903Y-3.2841
X4.903Y-3.3841
X4.903Y-3.4841
X4.903Y-3.5841
X4.903Y-3.6841
X4.903Y-3.7841
X5.2Y-4.3
X5.2Y-4.4
X5.2Y-4.5
T5
X5.45Y-2.6
X5.45Y-2.7
X5.45Y-2.8
X5.45Y-2.9
X5.45Y-3.1
X5.45Y-3.2
X5.45Y-3.3
X5.45Y-3.4
X5.45Y-1.6
X5.45Y-1.7
X5.45Y-1.8
X5.45Y-1.9
X5.45Y-2.1
X5.45Y-2.2
X5.45Y-2.3
X5.45Y-2.4
T6
X4.2Y-4.3
X4.8Y-4.3
X5.15Y-2.05
X5.15Y-2.65
X5.15Y-2.85
X5.15Y-3.45
X4.15Y-2.05
X4.15Y-2.65
T7
X4.3531Y-1.25
X4.55Y-1.25
X4.85Y-1.25
X5.05Y-1.25
X5.25Y-1.25
X5.45Y-1.25
X4.15Y-1.65
X4.15Y-1.8469
T3
G00X4.4Y-2.175
M15
G01X4.4Y-2.175
M16
G05
G00X4.4Y-2.625
M15
G01X4.4Y-2.625
M16
G05
G00X4.5Y-2.175
M15
G01X4.5Y-2.175
M16
G05
G00X4.5Y-2.625
M15
G01X4.5Y-2.625
M16
G05
G00X4.6Y-2.175
M15
G01X4.6Y-2.175
M16
G05
G00X4.6Y-2.625
M15
G01X4.6Y-2.625
M16
G05
G00X4.7Y-2.175
M15
G01X4.7Y-2.175
M16
G05
G00X4.7Y-2.625
M15
G01X4.7Y-2.625
M16
G05
G00X4.8Y-2.175
M15
G01X4.8Y-2.175
M16
G05
G00X4.8Y-2.625
M15
G01X4.8Y-2.625
M16
G05
G00X4.9Y-2.175
M15
G01X4.9Y-2.175
M16
G05
G00X4.9Y-2.625
M15
G01X4.9Y-2.625
M16
G05
T0
M30
